<svg width="24" height="24" viewBox="0 0 24 24" fill="none" xmlns="http://www.w3.org/2000/svg">
<g clip-path="url(#clip0_4_609)">
<path d="M21.9999 12.0559C21.9999 6.76389 17.5228 2.47388 11.9999 2.47388C6.47709 2.47388 1.99994 6.76389 1.99994 12.0559C1.99994 16.8385 5.65678 20.8027 10.4374 21.5215V14.8257H7.89838V12.0559H10.4374V9.94485C10.4374 7.54337 11.9304 6.21685 14.2145 6.21685C15.3087 6.21685 16.453 6.404 16.453 6.404V8.76208H15.1921C13.9499 8.76208 13.5624 9.50076 13.5624 10.2585V12.0559H16.3358L15.8925 14.8257H13.5624V21.5215C18.3431 20.8027 21.9999 16.8387 21.9999 12.0559Z" fill="black"/>
</g>
<defs>
<clipPath id="clip0_4_609">
<rect width="20" height="20" fill="white" transform="translate(1.99994 2.24268)"/>
</clipPath>
</defs>
</svg>
