<svg width="24" height="24" viewBox="0 0 24 24" fill="none" xmlns="http://www.w3.org/2000/svg">
<g clip-path="url(#clip0_4_612)">
<path fill-rule="evenodd" clip-rule="evenodd" d="M16 3.47266H8C5.23858 3.47266 3 5.59342 3 8.2095V15.7885C3 18.4045 5.23858 20.5253 8 20.5253H16C18.7614 20.5253 21 18.4045 21 15.7885V8.2095C21 5.59342 18.7614 3.47266 16 3.47266ZM19.25 15.7885C19.2445 17.4867 17.7926 18.8622 16 18.8674H8C6.20735 18.8622 4.75549 17.4867 4.75 15.7885V8.2095C4.75549 6.5112 6.20735 5.13576 8 5.13055H16C17.7926 5.13576 19.2445 6.5112 19.25 8.2095V15.7885ZM16.75 8.44634C17.3023 8.44634 17.75 8.02219 17.75 7.49898C17.75 6.97576 17.3023 6.55161 16.75 6.55161C16.1977 6.55161 15.75 6.97576 15.75 7.49898C15.75 8.02219 16.1977 8.44634 16.75 8.44634ZM12 7.73582C9.51472 7.73582 7.5 9.6445 7.5 11.999C7.5 14.3535 9.51472 16.2622 12 16.2622C14.4853 16.2622 16.5 14.3535 16.5 11.999C16.5027 10.8675 16.0294 9.78173 15.1849 8.98168C14.3404 8.18164 13.1943 7.7333 12 7.73582ZM9.25 11.999C9.25 13.4379 10.4812 14.6043 12 14.6043C13.5188 14.6043 14.75 13.4379 14.75 11.999C14.75 10.5601 13.5188 9.39371 12 9.39371C10.4812 9.39371 9.25 10.5601 9.25 11.999Z" fill="black"/>
</g>
<defs>
<clipPath id="clip0_4_612">
<rect width="18" height="18" fill="white" transform="translate(3 3.24268)"/>
</clipPath>
</defs>
</svg>
