<svg width="24" height="24" viewBox="0 0 24 24" fill="none" xmlns="http://www.w3.org/2000/svg">
<g clip-path="url(#clip0_4_618)">
<path fill-rule="evenodd" clip-rule="evenodd" d="M4.5 3.47266C3.67157 3.47266 3 4.10888 3 4.89371V19.1043C3 19.8891 3.67157 20.5253 4.5 20.5253H19.5C20.3284 20.5253 21 19.8891 21 19.1043V4.89371C21 4.10888 20.3284 3.47266 19.5 3.47266H4.5ZM8.52076 7.26471C8.52639 8.17063 7.81061 8.72884 6.96123 8.72484C6.16107 8.72084 5.46357 8.11734 5.46779 7.26605C5.47201 6.46537 6.13998 5.8219 7.00764 5.84055C7.88795 5.8592 8.52639 6.4707 8.52076 7.26471ZM12.2797 9.87854H9.75971H9.7583V17.9879H12.4217V17.7987C12.4217 17.4388 12.4214 17.0788 12.4211 16.7187C12.4203 15.7582 12.4194 14.7968 12.4246 13.8366C12.426 13.6035 12.4372 13.361 12.5005 13.1385C12.7381 12.3072 13.5271 11.7703 14.4074 11.9022C14.9727 11.9861 15.3467 12.2965 15.5042 12.8015C15.6013 13.1172 15.6449 13.4569 15.6491 13.786C15.6605 14.7785 15.6589 15.7709 15.6573 16.7635C15.6567 17.1138 15.6561 17.4644 15.6561 17.8147V17.9866H18.328V17.7921C18.328 17.3638 18.3278 16.9357 18.3275 16.5076C18.327 15.4376 18.3264 14.3675 18.3294 13.2971C18.3308 12.8134 18.276 12.3365 18.1508 11.8689C17.9638 11.1734 17.5771 10.5979 16.9485 10.1823C16.5027 9.88652 16.0133 9.69602 15.4663 9.6747C15.404 9.67225 15.3412 9.66904 15.2781 9.66581C14.9984 9.65148 14.7141 9.63693 14.4467 9.68802C13.6817 9.83323 13.0096 10.165 12.5019 10.7498C12.4429 10.8168 12.3852 10.885 12.2991 10.9866L12.2797 11.0096V9.87854ZM5.68164 17.9905H8.33242V9.88381H5.68164V17.9905Z" fill="black"/>
</g>
<defs>
<clipPath id="clip0_4_618">
<rect width="18" height="18" fill="white" transform="translate(3 3.24268)"/>
</clipPath>
</defs>
</svg>
