<svg width="24" height="24" viewBox="0 0 24 24" fill="none" xmlns="http://www.w3.org/2000/svg">
<g clip-path="url(#clip0_4_621)">
<path d="M21.6122 7.05793C21.5037 6.66316 21.2915 6.30314 20.9969 6.01371C20.7024 5.72428 20.3355 5.51552 19.933 5.40823C18.4405 5.00655 12.4696 5.00001 12.4696 5.00001C12.4696 5.00001 6.49972 4.99347 5.00629 5.3774C4.60404 5.48964 4.23797 5.70134 3.94323 5.99219C3.64849 6.28305 3.43498 6.64328 3.3232 7.03831C2.9296 8.50118 2.92578 11.5353 2.92578 11.5353C2.92578 11.5353 2.92197 14.5843 3.31272 16.0322C3.53192 16.8328 4.17523 17.4652 4.99295 17.681C6.50067 18.0827 12.4553 18.0892 12.4553 18.0892C12.4553 18.0892 18.4262 18.0958 19.9187 17.7128C20.3213 17.6056 20.6885 17.3974 20.9839 17.1086C21.2792 16.8197 21.4925 16.4603 21.6027 16.0659C21.9973 14.6039 22.0001 11.5708 22.0001 11.5708C22.0001 11.5708 22.0192 8.5208 21.6122 7.05793ZM10.5597 14.3461L10.5645 8.74126L15.527 11.5484L10.5597 14.3461Z" fill="black"/>
</g>
<defs>
<clipPath id="clip0_4_621">
<rect width="20.0141" height="14.0122" fill="white" transform="translate(1.98602 5)"/>
</clipPath>
</defs>
</svg>
